<svg id="b7b1bd1e4053a7820fbca3fef9a01a72" xmlns="http://www.w3.org/2000/svg" width="85.356" height="83.35" viewBox="0 0 85.356 83.35">
  <path id="b7b1bd1e4053a7820fbca3fef9a01a72-2" data-name="b7b1bd1e4053a7820fbca3fef9a01a72" d="M90.678,48C67.1,48,48,66.654,48,89.675S67.1,131.35,90.678,131.35s42.678-18.654,42.678-41.675S114.254,48,90.678,48Zm0,79.884A39.447,39.447,0,0,1,60.7,114.2c3.652-1.543,12.762-4.749,18.528-6.392.451-.14.533-.16.533-2.144a10.958,10.958,0,0,0-.78-4.729A23.6,23.6,0,0,1,77.095,94.6c-.862-.982-2.031-2.905-2.79-6.592-.657-3.246-.349-4.428.082-5.53a2.5,2.5,0,0,0,.123-.361,35.273,35.273,0,0,0-.636-7.774,14.01,14.01,0,0,1,3.078-10.279c1.867-2.344,5.458-5.209,11.9-5.61h3.591c6.545.4,10.136,3.266,12,5.61A13.882,13.882,0,0,1,107.5,74.347a35.2,35.2,0,0,0-.636,7.774,1.678,1.678,0,0,0,.123.341c.431,1.1.759,2.284.082,5.53-.759,3.687-1.929,5.61-2.79,6.592a23.822,23.822,0,0,1-1.888,6.331,11.03,11.03,0,0,0-1.354,4.668c0,1.984.082,2,.554,2.144,5.478,1.583,14.917,4.769,19.082,6.432a39.425,39.425,0,0,1-30,13.725Z" transform="translate(-48 -48)" fill="#44ac4c"/>
</svg>
